# xmcd
#
# Track frame offsets:
#	150
#	10560
#	22790
#	34320
#	46305
#	58700
#	68592
#	87017
#	99497
#	111507
#	123147
#	133252
#
# Disc length: 1905 seconds
#
# Revision: 0
# Processed by: cddbd v1.5.1PL0 Copyright (c) Steve Scherf et al.
# Submitted via: dBpowerAMP V4.0
#
DISCID=92076f0c
DTITLE=Red Sovine - The One And Only
DYEAR=1900
DGENRE=
TTITLE0=No Money In This Deal
TTITLE1=One Is A Lonely Number
TTITLE2=Invitation To The Blues
TTITLE3=If I Could Come Back
TTITLE4=Brand New Low
TTITLE5=Hold Everything
TTITLE6=Little Rosa
TTITLE7=Why Baby Why
TTITLE8=Color Of The Blues
TTITLE9=Heart Of A Man
TTITLE10=Long Time To Forget
TTITLE11=More From Habit Than Desire
EXTD=
EXTT0=
EXTT1=
EXTT2=
EXTT3=
EXTT4=
EXTT5=
EXTT6=
EXTT7=
EXTT8=
EXTT9=
EXTT10=
EXTT11=
PLAYORDER=
